<svg id="Capa_1" enable-background="new 0 0 494.241 494.241" height="512" viewBox="0 0 494.241 494.241" width="512" xmlns="http://www.w3.org/2000/svg"><g><path d="m470.411 156.704c-40.024-78.795-144.564-132.215-228.113-102.84-66.037 23.218-139.007 72.887-120.527 157.227 2.591 280.803 465.879 215.405 348.64-54.387z" fill="#41efcd"/><g fill="#2e386b"><path d="m149.863 150.711c11.555 1.072 82.298-9.891 52.076-28.132-21.977-4.698-44.647-.45-66.36-2.222 3.664-6.402 7.603-12.624 11.859-18.582 63.65-95.33 206.656-104.103 278.992-14.691 12.474 15.007 22.115 32.196 29.176 50.469 7.082 18.471 11.379 38.211 13.971 58.573.486 3.829 3.548 6.968 7.552 7.389 19.958 1.698 7.019-61.925 3.686-74.21-35.169-130.296-203.234-164.021-302.977-84.843-19.268 15.221-36.09 33.999-49.268 54.699-3.198 4.868-6.269 10.237-9.181 15.519-2.858-2.83-4.915-6.539-6.092-10.447-5.297-18.001-4.126-37.302-2.88-55.823.517-5.577 1.151-11.815 2.042-17.345 1.822-10.72-15.153-13.394-16.638-2.545-3.73 31.134-13.43 74.836 5.884 102.585 11.04 14.985 30.394 19.985 48.158 19.606z"/><path d="m493.286 305.714c-2.244-35.287-32.648-44.732-63.015-43.064-16.208.26-31.881 1.666-47.55 3.305-3.356.347-6 3.155-6.057 6.613-.061 3.734 2.915 6.811 6.649 6.872 16.595 1.344 46.578-1.288 66.642 4.402-11.639 26.055-29.971 49.072-53.514 65.241-83.999 57.564-210.873 20.764-258.863-66.811-9.438-17.08-15.758-35.763-18.708-55.021-4.561-14.886 5.584-43.536-17.502-44.333-29.099.985-6.332 65.612-1.042 81.925 9.476 25.332 24.403 47.736 43.019 66.559-8.759 9.964-17.711 19.746-26.907 29.31-34.132 35.937-75.55 72.285-112.23 106.022-13.383 14.281 8.251 34.86 21.826 20.614 11.719-12.406 23.597-24.744 35.354-37.269 8.561-9.948 71.232-74.892 92.965-108.348 68.199 59.592 175.631 75.846 252.349 22.281 25.148-17.054 45.24-40.675 60.339-66.9 6.774 23.058-3.872 55.588-5.628 79.418-1.277 19.544 28.531 21.665 29.951 2.051 1.324-23.904 4.445-48.752 1.922-72.867z"/></g></g></svg>